{
    "asset" : {
        "generator" : "Khronos glTF Blender I/O v1.2.75",
        "version" : "2.0"
    },
    "scene" : 0,
    "scenes" : [
        {
            "name" : "Scene",
            "nodes" : [
                0,
                1,
                2,
                3,
                4,
                5,
                6
            ]
        }
    ],
    "nodes" : [
        {
            "mesh" : 0,
            "name" : "Cube",
            "rotation" : [
                0,
                0,
                0.7071067094802856,
                0.7071068286895752
            ],
            "translation" : [
                0,
                29.006004333496094,
                0
            ]
        },
        {
            "mesh" : 1,
            "name" : "Cube.001",
            "rotation" : [
                0,
                0,
                0.7071067094802856,
                0.7071068286895752
            ],
            "translation" : [
                0,
                29.980613708496094,
                0
            ]
        },
        {
            "mesh" : 2,
            "name" : "Cube.002",
            "rotation" : [
                0,
                0,
                0.7071067094802856,
                0.7071068286895752
            ],
            "translation" : [
                0,
                29.006004333496094,
                0
            ]
        },
        {
            "mesh" : 3,
            "name" : "Plane",
            "scale" : [
                -91.36656951904297,
                -91.36656951904297,
                -91.36656951904297
            ],
            "translation" : [
                1.7271652221679688,
                -46.63438034057617,
                -0.1275177001953125
            ]
        },
        {
            "name" : "Camera",
            "rotation" : [
                -0.08401975780725479,
                -0.699677050113678,
                0.7045814990997314,
                -0.08341246098279953
            ],
            "translation" : [
                37.76253128051758,
                5.213086128234863,
                -163.51934814453125
            ]
        },
        {
            "mesh" : 4,
            "name" : "Plane.001",
            "rotation" : [
                0.3505433201789856,
                0,
                0,
                0.9365465044975281
            ],
            "scale" : [
                -68.69817352294922,
                -68.69817352294922,
                -68.69817352294922
            ],
            "translation" : [
                -10.601892471313477,
                96.95964050292969,
                55.31055450439453
            ]
        },
        {
            "mesh" : 5,
            "name" : "Plane.002",
            "rotation" : [
                0.4199022650718689,
                0.5042073130607605,
                -0.2420773059129715,
                0.7147417068481445
            ],
            "scale" : [
                -42.81024932861328,
                -42.81024932861328,
                -42.81024932861328
            ],
            "translation" : [
                89.0832748413086,
                58.163970947265625,
                21.585060119628906
            ]
        }
    ],
    "animations" : [
        {
            "channels" : [
                {
                    "sampler" : 0,
                    "target" : {
                        "node" : 0,
                        "path" : "rotation"
                    }
                },
                {
                    "sampler" : 1,
                    "target" : {
                        "node" : 0,
                        "path" : "translation"
                    }
                }
            ],
            "name" : "CubeAction",
            "samplers" : [
                {
                    "input" : 22,
                    "interpolation" : "LINEAR",
                    "output" : 23
                },
                {
                    "input" : 22,
                    "interpolation" : "LINEAR",
                    "output" : 24
                }
            ]
        },
        {
            "channels" : [
                {
                    "sampler" : 0,
                    "target" : {
                        "node" : 1,
                        "path" : "rotation"
                    }
                },
                {
                    "sampler" : 1,
                    "target" : {
                        "node" : 1,
                        "path" : "translation"
                    }
                }
            ],
            "name" : "Cube.001Action",
            "samplers" : [
                {
                    "input" : 22,
                    "interpolation" : "LINEAR",
                    "output" : 25
                },
                {
                    "input" : 22,
                    "interpolation" : "LINEAR",
                    "output" : 26
                }
            ]
        },
        {
            "channels" : [
                {
                    "sampler" : 0,
                    "target" : {
                        "node" : 2,
                        "path" : "rotation"
                    }
                },
                {
                    "sampler" : 1,
                    "target" : {
                        "node" : 2,
                        "path" : "translation"
                    }
                }
            ],
            "name" : "Cube.002Action",
            "samplers" : [
                {
                    "input" : 22,
                    "interpolation" : "LINEAR",
                    "output" : 27
                },
                {
                    "input" : 22,
                    "interpolation" : "LINEAR",
                    "output" : 28
                }
            ]
        }
    ],
    "materials" : [
        {
            "doubleSided" : true,
            "name" : "Material.001",
            "pbrMetallicRoughness" : {}
        },
        {
            "doubleSided" : true,
            "name" : "InnerStreaks",
            "pbrMetallicRoughness" : {}
        },
        {
            "doubleSided" : true,
            "emissiveFactor" : [
                1,
                1,
                1
            ],
            "name" : "Core",
            "pbrMetallicRoughness" : {}
        },
        {
            "doubleSided" : true,
            "emissiveFactor" : [
                1,
                0.7298417687416077,
                0.4947827160358429
            ],
            "name" : "Material.002",
            "pbrMetallicRoughness" : {}
        },
        {
            "doubleSided" : true,
            "emissiveFactor" : [
                0.22243328392505646,
                0.24289794266223907,
                1
            ],
            "name" : "Material.003",
            "pbrMetallicRoughness" : {}
        }
    ],
    "meshes" : [
        {
            "name" : "Cube.001",
            "primitives" : [
                {
                    "attributes" : {
                        "POSITION" : 0,
                        "NORMAL" : 1,
                        "TEXCOORD_0" : 2
                    },
                    "indices" : 3,
                    "material" : 0
                }
            ]
        },
        {
            "name" : "Cube.002",
            "primitives" : [
                {
                    "attributes" : {
                        "POSITION" : 4,
                        "NORMAL" : 5,
                        "TEXCOORD_0" : 6
                    },
                    "indices" : 7,
                    "material" : 1
                }
            ]
        },
        {
            "name" : "Cube.003",
            "primitives" : [
                {
                    "attributes" : {
                        "POSITION" : 8,
                        "NORMAL" : 9,
                        "TEXCOORD_0" : 10
                    },
                    "indices" : 11,
                    "material" : 2
                }
            ]
        },
        {
            "name" : "Plane",
            "primitives" : [
                {
                    "attributes" : {
                        "POSITION" : 12,
                        "NORMAL" : 13,
                        "TEXCOORD_0" : 14
                    },
                    "indices" : 15,
                    "material" : 3
                }
            ]
        },
        {
            "name" : "Plane.001",
            "primitives" : [
                {
                    "attributes" : {
                        "POSITION" : 16,
                        "NORMAL" : 17,
                        "TEXCOORD_0" : 18
                    },
                    "indices" : 15,
                    "material" : 4
                }
            ]
        },
        {
            "name" : "Plane.002",
            "primitives" : [
                {
                    "attributes" : {
                        "POSITION" : 19,
                        "NORMAL" : 20,
                        "TEXCOORD_0" : 21
                    },
                    "indices" : 15,
                    "material" : 4
                }
            ]
        }
    ],
    "accessors" : [
        {
            "bufferView" : 0,
            "componentType" : 5126,
            "count" : 1192,
            "max" : [
                12.75062084197998,
                4.038871765136719,
                4.038872241973877
            ],
            "min" : [
                -21.049663543701172,
                -4.038873195648193,
                -4.038872241973877
            ],
            "type" : "VEC3"
        },
        {
            "bufferView" : 1,
            "componentType" : 5126,
            "count" : 1192,
            "type" : "VEC3"
        },
        {
            "bufferView" : 2,
            "componentType" : 5126,
            "count" : 1192,
            "type" : "VEC2"
        },
        {
            "bufferView" : 3,
            "componentType" : 5123,
            "count" : 1752,
            "type" : "SCALAR"
        },
        {
            "bufferView" : 4,
            "componentType" : 5126,
            "count" : 1192,
            "max" : [
                15.744898796081543,
                2.17035174369812,
                2.170351028442383
            ],
            "min" : [
                -24.99656867980957,
                -2.170351505279541,
                -2.1703507900238037
            ],
            "type" : "VEC3"
        },
        {
            "bufferView" : 5,
            "componentType" : 5126,
            "count" : 1192,
            "type" : "VEC3"
        },
        {
            "bufferView" : 6,
            "componentType" : 5126,
            "count" : 1192,
            "type" : "VEC2"
        },
        {
            "bufferView" : 7,
            "componentType" : 5123,
            "count" : 1752,
            "type" : "SCALAR"
        },
        {
            "bufferView" : 8,
            "componentType" : 5126,
            "count" : 298,
            "max" : [
                9.888839721679688,
                1,
                1
            ],
            "min" : [
                -4.8538126945495605,
                -1,
                -1
            ],
            "type" : "VEC3"
        },
        {
            "bufferView" : 9,
            "componentType" : 5126,
            "count" : 298,
            "type" : "VEC3"
        },
        {
            "bufferView" : 10,
            "componentType" : 5126,
            "count" : 298,
            "type" : "VEC2"
        },
        {
            "bufferView" : 11,
            "componentType" : 5123,
            "count" : 438,
            "type" : "SCALAR"
        },
        {
            "bufferView" : 12,
            "componentType" : 5126,
            "count" : 4,
            "max" : [
                1,
                0,
                1
            ],
            "min" : [
                -1,
                0,
                -1
            ],
            "type" : "VEC3"
        },
        {
            "bufferView" : 13,
            "componentType" : 5126,
            "count" : 4,
            "type" : "VEC3"
        },
        {
            "bufferView" : 14,
            "componentType" : 5126,
            "count" : 4,
            "type" : "VEC2"
        },
        {
            "bufferView" : 15,
            "componentType" : 5123,
            "count" : 6,
            "type" : "SCALAR"
        },
        {
            "bufferView" : 16,
            "componentType" : 5126,
            "count" : 4,
            "max" : [
                1,
                0,
                1
            ],
            "min" : [
                -1,
                0,
                -1
            ],
            "type" : "VEC3"
        },
        {
            "bufferView" : 17,
            "componentType" : 5126,
            "count" : 4,
            "type" : "VEC3"
        },
        {
            "bufferView" : 18,
            "componentType" : 5126,
            "count" : 4,
            "type" : "VEC2"
        },
        {
            "bufferView" : 19,
            "componentType" : 5126,
            "count" : 4,
            "max" : [
                1,
                0,
                1
            ],
            "min" : [
                -1,
                0,
                -1
            ],
            "type" : "VEC3"
        },
        {
            "bufferView" : 20,
            "componentType" : 5126,
            "count" : 4,
            "type" : "VEC3"
        },
        {
            "bufferView" : 21,
            "componentType" : 5126,
            "count" : 4,
            "type" : "VEC2"
        },
        {
            "bufferView" : 22,
            "componentType" : 5126,
            "count" : 100,
            "max" : [
                4.166666666666667
            ],
            "min" : [
                0.041666666666666664
            ],
            "type" : "SCALAR"
        },
        {
            "bufferView" : 23,
            "componentType" : 5126,
            "count" : 100,
            "type" : "VEC4"
        },
        {
            "bufferView" : 24,
            "componentType" : 5126,
            "count" : 100,
            "type" : "VEC3"
        },
        {
            "bufferView" : 25,
            "componentType" : 5126,
            "count" : 100,
            "type" : "VEC4"
        },
        {
            "bufferView" : 26,
            "componentType" : 5126,
            "count" : 100,
            "type" : "VEC3"
        },
        {
            "bufferView" : 27,
            "componentType" : 5126,
            "count" : 100,
            "type" : "VEC4"
        },
        {
            "bufferView" : 28,
            "componentType" : 5126,
            "count" : 100,
            "type" : "VEC3"
        }
    ],
    "bufferViews" : [
        {
            "buffer" : 0,
            "byteLength" : 14304,
            "byteOffset" : 0
        },
        {
            "buffer" : 0,
            "byteLength" : 14304,
            "byteOffset" : 14304
        },
        {
            "buffer" : 0,
            "byteLength" : 9536,
            "byteOffset" : 28608
        },
        {
            "buffer" : 0,
            "byteLength" : 3504,
            "byteOffset" : 38144
        },
        {
            "buffer" : 0,
            "byteLength" : 14304,
            "byteOffset" : 41648
        },
        {
            "buffer" : 0,
            "byteLength" : 14304,
            "byteOffset" : 55952
        },
        {
            "buffer" : 0,
            "byteLength" : 9536,
            "byteOffset" : 70256
        },
        {
            "buffer" : 0,
            "byteLength" : 3504,
            "byteOffset" : 79792
        },
        {
            "buffer" : 0,
            "byteLength" : 3576,
            "byteOffset" : 83296
        },
        {
            "buffer" : 0,
            "byteLength" : 3576,
            "byteOffset" : 86872
        },
        {
            "buffer" : 0,
            "byteLength" : 2384,
            "byteOffset" : 90448
        },
        {
            "buffer" : 0,
            "byteLength" : 876,
            "byteOffset" : 92832
        },
        {
            "buffer" : 0,
            "byteLength" : 48,
            "byteOffset" : 93708
        },
        {
            "buffer" : 0,
            "byteLength" : 48,
            "byteOffset" : 93756
        },
        {
            "buffer" : 0,
            "byteLength" : 32,
            "byteOffset" : 93804
        },
        {
            "buffer" : 0,
            "byteLength" : 12,
            "byteOffset" : 93836
        },
        {
            "buffer" : 0,
            "byteLength" : 48,
            "byteOffset" : 93848
        },
        {
            "buffer" : 0,
            "byteLength" : 48,
            "byteOffset" : 93896
        },
        {
            "buffer" : 0,
            "byteLength" : 32,
            "byteOffset" : 93944
        },
        {
            "buffer" : 0,
            "byteLength" : 48,
            "byteOffset" : 93976
        },
        {
            "buffer" : 0,
            "byteLength" : 48,
            "byteOffset" : 94024
        },
        {
            "buffer" : 0,
            "byteLength" : 32,
            "byteOffset" : 94072
        },
        {
            "buffer" : 0,
            "byteLength" : 400,
            "byteOffset" : 94104
        },
        {
            "buffer" : 0,
            "byteLength" : 1600,
            "byteOffset" : 94504
        },
        {
            "buffer" : 0,
            "byteLength" : 1200,
            "byteOffset" : 96104
        },
        {
            "buffer" : 0,
            "byteLength" : 1600,
            "byteOffset" : 97304
        },
        {
            "buffer" : 0,
            "byteLength" : 1200,
            "byteOffset" : 98904
        },
        {
            "buffer" : 0,
            "byteLength" : 1600,
            "byteOffset" : 100104
        },
        {
            "buffer" : 0,
            "byteLength" : 1200,
            "byteOffset" : 101704
        }
    ],
    "buffers" : [
        {
            "byteLength" : 102904,
            "uri" : "data:application/octet-stream;base64,"
        }
    ]
}
